<svg width="24" height="24" viewBox="0 0 24 24" fill="none" xmlns="http://www.w3.org/2000/svg">
<path d="M16.7761 9.6001H2.42876C0.269298 9.6001 -0.812169 11.5583 0.714802 12.7035L15.0621 23.464C16.5891 24.6092 19.2 23.7981 19.2 22.1785V11.418C19.2 10.414 18.1148 9.6001 16.7761 9.6001Z" fill="#D2E4F9"/>
<path d="M19.1999 9.6001H2.3999L19.1999 22.2001V9.6001Z" fill="#BCD6F5"/>
<path d="M19.176 4.80005H4.82866C2.6692 4.80005 1.58773 6.75821 3.1147 7.90344L17.462 18.6639C18.989 19.8092 21.5999 18.9981 21.5999 17.3785V6.61797C21.5999 5.61396 20.5147 4.80005 19.176 4.80005Z" fill="#79AEEC"/>
<path d="M21.5998 4.80005H4.7998L21.5998 17.4V4.80005Z" fill="#63A0E9"/>
<path d="M21.576 0H7.22863C5.06916 0 3.9877 1.95816 5.51467 3.10339L19.862 13.8639C21.389 15.0091 23.9999 14.198 23.9999 12.5784V1.81792C23.9999 0.813912 22.9146 0 21.576 0Z" fill="#2077DF"/>
</svg>
