<svg width="20" height="20" viewBox="0 0 20 20" fill="none" xmlns="http://www.w3.org/2000/svg">
<mask id="mask0_4006_5" style="mask-type:alpha" maskUnits="userSpaceOnUse" x="0" y="0" width="20" height="20">
<rect width="20" height="20" fill="#0070DD"/>
</mask>
<g mask="url(#mask0_4006_5)">
<path d="M7.24998 14.4167C7.0972 14.2639 7.02081 14.0694 7.02081 13.8333C7.02081 13.5972 7.0972 13.4028 7.24998 13.25L10.5 10L7.24998 6.75C7.0972 6.59722 7.02081 6.40278 7.02081 6.16666C7.02081 5.93055 7.0972 5.73611 7.24998 5.58333C7.40276 5.43055 7.5972 5.35416 7.83331 5.35416C8.06942 5.35416 8.26387 5.43055 8.41665 5.58333L12.25 9.41666C12.3333 9.5 12.3923 9.59028 12.4271 9.6875C12.4618 9.78472 12.4791 9.88889 12.4791 10C12.4791 10.1111 12.4618 10.2153 12.4271 10.3125C12.3923 10.4097 12.3333 10.5 12.25 10.5833L8.41665 14.4167C8.26387 14.5694 8.06942 14.6458 7.83331 14.6458C7.5972 14.6458 7.40276 14.5694 7.24998 14.4167Z" fill="#161616"/>
</g>
</svg>
