<svg width="24" height="24" viewBox="0 0 24 24" fill="none" xmlns="http://www.w3.org/2000/svg">
<mask id="mask0_4002_368" style="mask-type:alpha" maskUnits="userSpaceOnUse" x="0" y="0" width="24" height="24">
<rect width="24" height="24" fill="#D9D9D9"/>
</mask>
<g mask="url(#mask0_4002_368)">
<path d="M11.2999 15.5L8.69991 12.9C8.38325 12.5833 8.31241 12.2208 8.48741 11.8125C8.66241 11.4041 8.97491 11.2 9.42491 11.2H14.5749C15.0249 11.2 15.3374 11.4041 15.5124 11.8125C15.6874 12.2208 15.6166 12.5833 15.2999 12.9L12.6999 15.5C12.5999 15.6 12.4916 15.675 12.3749 15.725C12.2582 15.775 12.1332 15.8 11.9999 15.8C11.8666 15.8 11.7416 15.775 11.6249 15.725C11.5082 15.675 11.3999 15.6 11.2999 15.5Z" fill="#161616"/>
</g>
</svg>
