<svg width="1600" height="960" viewBox="0 0 1600 960" fill="none" xmlns="http://www.w3.org/2000/svg">
<g opacity="0.2" clip-path="url(#clip0_4006_659)">
<path d="M962.392 -825.531L3061.33 386.294L637.679 1785.58L-1461.26 573.756L962.392 -825.531Z" stroke="#2196F3" stroke-width="1.25" stroke-miterlimit="10"/>
<path d="M-1413.73 546.32L685.203 1758.14" stroke="#2196F3" stroke-width="1.25" stroke-miterlimit="10"/>
<path d="M-1366.21 518.882L732.728 1730.71" stroke="#2196F3" stroke-width="1.25" stroke-miterlimit="10"/>
<path d="M-1318.7 491.444L780.242 1703.27" stroke="#2196F3" stroke-width="1.25" stroke-miterlimit="10"/>
<path d="M-1271.17 464.006L827.767 1675.83" stroke="#2196F3" stroke-width="1.25" stroke-miterlimit="10"/>
<path d="M-1223.65 436.569L875.292 1648.39" stroke="#2196F3" stroke-width="1.25" stroke-miterlimit="10"/>
<path d="M-1176.12 409.132L922.815 1620.96" stroke="#2196F3" stroke-width="1.25" stroke-miterlimit="10"/>
<path d="M-1128.6 381.694L970.342 1593.52" stroke="#2196F3" stroke-width="1.25" stroke-miterlimit="10"/>
<path d="M-1081.08 354.257L1017.85 1566.08" stroke="#2196F3" stroke-width="1.25" stroke-miterlimit="10"/>
<path d="M-1033.56 326.819L1065.38 1538.64" stroke="#2196F3" stroke-width="1.25" stroke-miterlimit="10"/>
<path d="M-986.034 299.381L1112.9 1511.21" stroke="#2196F3" stroke-width="1.25" stroke-miterlimit="10"/>
<path d="M-938.51 271.943L1160.43 1483.77" stroke="#2196F3" stroke-width="1.25" stroke-miterlimit="10"/>
<path d="M-890.985 244.506L1207.95 1456.33" stroke="#2196F3" stroke-width="1.25" stroke-miterlimit="10"/>
<path d="M-843.471 217.081L1255.47 1428.89" stroke="#2196F3" stroke-width="1.25" stroke-miterlimit="10"/>
<path d="M-795.946 189.643L1302.99 1401.46" stroke="#2196F3" stroke-width="1.25" stroke-miterlimit="10"/>
<path d="M-748.422 162.206L1350.52 1374.02" stroke="#2196F3" stroke-width="1.25" stroke-miterlimit="10"/>
<path d="M-700.897 134.769L1398.04 1346.58" stroke="#2196F3" stroke-width="1.25" stroke-miterlimit="10"/>
<path d="M-653.373 107.331L1445.56 1319.14" stroke="#2196F3" stroke-width="1.25" stroke-miterlimit="10"/>
<path d="M-605.858 79.8936L1493.08 1291.71" stroke="#2196F3" stroke-width="1.25" stroke-miterlimit="10"/>
<path d="M-558.333 52.4558L1540.6 1264.27" stroke="#2196F3" stroke-width="1.25" stroke-miterlimit="10"/>
<path d="M-510.809 25.0181L1588.13 1236.84" stroke="#2196F3" stroke-width="1.25" stroke-miterlimit="10"/>
<path d="M-463.282 -2.41846L1635.66 1209.41" stroke="#2196F3" stroke-width="1.25" stroke-miterlimit="10"/>
<path d="M-415.758 -29.8562L1683.18 1181.97" stroke="#2196F3" stroke-width="1.25" stroke-miterlimit="10"/>
<path d="M-368.246 -57.2939L1730.69 1154.53" stroke="#2196F3" stroke-width="1.25" stroke-miterlimit="10"/>
<path d="M-320.721 -84.7317L1778.22 1127.09" stroke="#2196F3" stroke-width="1.25" stroke-miterlimit="10"/>
<path d="M-273.197 -112.169L1825.74 1099.66" stroke="#2196F3" stroke-width="1.25" stroke-miterlimit="10"/>
<path d="M-225.673 -139.606L1873.27 1072.22" stroke="#2196F3" stroke-width="1.25" stroke-miterlimit="10"/>
<path d="M-178.158 -167.044L1920.79 1044.78" stroke="#2196F3" stroke-width="1.25" stroke-miterlimit="10"/>
<path d="M-130.634 -194.481L1968.3 1017.34" stroke="#2196F3" stroke-width="1.25" stroke-miterlimit="10"/>
<path d="M-83.1091 -221.919L2015.83 989.906" stroke="#2196F3" stroke-width="1.25" stroke-miterlimit="10"/>
<path d="M-35.5847 -249.357L2063.35 962.468" stroke="#2196F3" stroke-width="1.25" stroke-miterlimit="10"/>
<path d="M11.9421 -276.793L2110.88 935.031" stroke="#2196F3" stroke-width="1.25" stroke-miterlimit="10"/>
<path d="M59.4541 -304.231L2158.39 907.594" stroke="#2196F3" stroke-width="1.25" stroke-miterlimit="10"/>
<path d="M106.979 -331.669L2205.92 880.156" stroke="#2196F3" stroke-width="1.25" stroke-miterlimit="10"/>
<path d="M154.503 -359.107L2253.44 852.718" stroke="#2196F3" stroke-width="1.25" stroke-miterlimit="10"/>
<path d="M202.03 -386.544L2300.97 825.28" stroke="#2196F3" stroke-width="1.25" stroke-miterlimit="10"/>
<path d="M249.554 -413.981L2348.49 797.844" stroke="#2196F3" stroke-width="1.25" stroke-miterlimit="10"/>
<path d="M297.066 -441.419L2396 770.406" stroke="#2196F3" stroke-width="1.25" stroke-miterlimit="10"/>
<path d="M344.592 -468.856L2443.53 742.968" stroke="#2196F3" stroke-width="1.25" stroke-miterlimit="10"/>
<path d="M392.115 -496.294L2491.05 715.531" stroke="#2196F3" stroke-width="1.25" stroke-miterlimit="10"/>
<path d="M439.642 -523.732L2538.58 688.093" stroke="#2196F3" stroke-width="1.25" stroke-miterlimit="10"/>
<path d="M487.167 -551.168L2586.1 660.656" stroke="#2196F3" stroke-width="1.25" stroke-miterlimit="10"/>
<path d="M534.679 -578.606L2633.62 633.219" stroke="#2196F3" stroke-width="1.25" stroke-miterlimit="10"/>
<path d="M582.203 -606.044L2681.14 605.781" stroke="#2196F3" stroke-width="1.25" stroke-miterlimit="10"/>
<path d="M629.728 -633.468L2728.67 578.344" stroke="#2196F3" stroke-width="1.25" stroke-miterlimit="10"/>
<path d="M677.255 -660.906L2776.19 550.906" stroke="#2196F3" stroke-width="1.25" stroke-miterlimit="10"/>
<path d="M724.779 -688.344L2823.72 523.469" stroke="#2196F3" stroke-width="1.25" stroke-miterlimit="10"/>
<path d="M772.292 -715.781L2871.23 496.031" stroke="#2196F3" stroke-width="1.25" stroke-miterlimit="10"/>
<path d="M819.816 -743.219L2918.75 468.593" stroke="#2196F3" stroke-width="1.25" stroke-miterlimit="10"/>
<path d="M867.343 -770.656L2966.28 441.157" stroke="#2196F3" stroke-width="1.25" stroke-miterlimit="10"/>
<path d="M914.867 -798.094L3013.8 413.719" stroke="#2196F3" stroke-width="1.25" stroke-miterlimit="10"/>
<path d="M3020.17 362.532L596.53 1761.82" stroke="#2196F3" stroke-width="1.25" stroke-miterlimit="10"/>
<path d="M2979.02 338.768L555.367 1738.06" stroke="#2196F3" stroke-width="1.25" stroke-miterlimit="10"/>
<path d="M2937.85 315.006L514.217 1714.29" stroke="#2196F3" stroke-width="1.25" stroke-miterlimit="10"/>
<path d="M2896.7 291.244L473.053 1690.53" stroke="#2196F3" stroke-width="1.25" stroke-miterlimit="10"/>
<path d="M2855.54 267.482L431.903 1666.77" stroke="#2196F3" stroke-width="1.25" stroke-miterlimit="10"/>
<path d="M2814.39 243.719L390.741 1643.01" stroke="#2196F3" stroke-width="1.25" stroke-miterlimit="10"/>
<path d="M2773.23 219.956L349.591 1619.26" stroke="#2196F3" stroke-width="1.25" stroke-miterlimit="10"/>
<path d="M2732.08 196.194L308.429 1595.49" stroke="#2196F3" stroke-width="1.25" stroke-miterlimit="10"/>
<path d="M2690.93 172.431L267.279 1571.73" stroke="#2196F3" stroke-width="1.25" stroke-miterlimit="10"/>
<path d="M2649.77 148.681L226.129 1547.97" stroke="#2196F3" stroke-width="1.25" stroke-miterlimit="10"/>
<path d="M2608.62 124.918L184.967 1524.21" stroke="#2196F3" stroke-width="1.25" stroke-miterlimit="10"/>
<path d="M2567.45 101.156L143.817 1500.44" stroke="#2196F3" stroke-width="1.25" stroke-miterlimit="10"/>
<path d="M2526.31 77.3936L102.655 1476.68" stroke="#2196F3" stroke-width="1.25" stroke-miterlimit="10"/>
<path d="M2485.14 53.6313L61.5051 1452.92" stroke="#2196F3" stroke-width="1.25" stroke-miterlimit="10"/>
<path d="M2443.99 29.8691L20.3406 1429.16" stroke="#2196F3" stroke-width="1.25" stroke-miterlimit="10"/>
<path d="M2402.83 6.10547L-20.8093 1405.41" stroke="#2196F3" stroke-width="1.25" stroke-miterlimit="10"/>
<path d="M2361.68 -17.6565L-61.9709 1381.64" stroke="#2196F3" stroke-width="1.25" stroke-miterlimit="10"/>
<path d="M2320.52 -41.4187L-103.121 1357.88" stroke="#2196F3" stroke-width="1.25" stroke-miterlimit="10"/>
<path d="M2279.37 -65.1809L-144.284 1334.12" stroke="#2196F3" stroke-width="1.25" stroke-miterlimit="10"/>
<path d="M2238.22 -88.9309L-185.434 1310.36" stroke="#2196F3" stroke-width="1.25" stroke-miterlimit="10"/>
<path d="M2197.05 -112.694L-226.583 1286.59" stroke="#2196F3" stroke-width="1.25" stroke-miterlimit="10"/>
<path d="M2155.9 -136.457L-267.748 1262.83" stroke="#2196F3" stroke-width="1.25" stroke-miterlimit="10"/>
<path d="M2114.74 -160.219L-308.895 1239.07" stroke="#2196F3" stroke-width="1.25" stroke-miterlimit="10"/>
<path d="M2073.59 -183.981L-350.057 1215.31" stroke="#2196F3" stroke-width="1.25" stroke-miterlimit="10"/>
<path d="M2032.43 -207.745L-391.21 1191.54" stroke="#2196F3" stroke-width="1.25" stroke-miterlimit="10"/>
<path d="M1991.28 -231.507L-432.372 1167.79" stroke="#2196F3" stroke-width="1.25" stroke-miterlimit="10"/>
<path d="M1950.12 -255.269L-473.519 1144.03" stroke="#2196F3" stroke-width="1.25" stroke-miterlimit="10"/>
<path d="M1908.97 -279.031L-514.684 1120.27" stroke="#2196F3" stroke-width="1.25" stroke-miterlimit="10"/>
<path d="M1867.82 -302.794L-555.833 1096.51" stroke="#2196F3" stroke-width="1.25" stroke-miterlimit="10"/>
<path d="M1826.65 -326.544L-596.996 1072.74" stroke="#2196F3" stroke-width="1.25" stroke-miterlimit="10"/>
<path d="M1785.5 -350.307L-638.146 1048.98" stroke="#2196F3" stroke-width="1.25" stroke-miterlimit="10"/>
<path d="M1744.34 -374.069L-679.296 1025.22" stroke="#2196F3" stroke-width="1.25" stroke-miterlimit="10"/>
<path d="M1703.19 -397.831L-720.458 1001.46" stroke="#2196F3" stroke-width="1.25" stroke-miterlimit="10"/>
<path d="M1662.03 -421.593L-761.61 977.694" stroke="#2196F3" stroke-width="1.25" stroke-miterlimit="10"/>
<path d="M1620.88 -445.357L-802.772 953.931" stroke="#2196F3" stroke-width="1.25" stroke-miterlimit="10"/>
<path d="M1579.72 -469.119L-843.922 930.181" stroke="#2196F3" stroke-width="1.25" stroke-miterlimit="10"/>
<path d="M1538.57 -492.881L-885.082 906.419" stroke="#2196F3" stroke-width="1.25" stroke-miterlimit="10"/>
<path d="M1497.4 -516.645L-926.234 882.655" stroke="#2196F3" stroke-width="1.25" stroke-miterlimit="10"/>
<path d="M1456.25 -540.393L-967.396 858.894" stroke="#2196F3" stroke-width="1.25" stroke-miterlimit="10"/>
<path d="M1415.1 -564.157L-1008.55 835.13" stroke="#2196F3" stroke-width="1.25" stroke-miterlimit="10"/>
<path d="M1373.94 -587.919L-1049.7 811.368" stroke="#2196F3" stroke-width="1.25" stroke-miterlimit="10"/>
<path d="M1332.79 -611.681L-1090.86 787.606" stroke="#2196F3" stroke-width="1.25" stroke-miterlimit="10"/>
<path d="M1291.63 -635.443L-1132.01 763.844" stroke="#2196F3" stroke-width="1.25" stroke-miterlimit="10"/>
<path d="M1250.48 -659.207L-1173.17 740.08" stroke="#2196F3" stroke-width="1.25" stroke-miterlimit="10"/>
<path d="M1209.32 -682.969L-1214.32 716.318" stroke="#2196F3" stroke-width="1.25" stroke-miterlimit="10"/>
<path d="M1168.17 -706.731L-1255.48 692.569" stroke="#2196F3" stroke-width="1.25" stroke-miterlimit="10"/>
<path d="M1127 -730.493L-1296.63 668.807" stroke="#2196F3" stroke-width="1.25" stroke-miterlimit="10"/>
<path d="M1085.85 -754.257L-1337.8 645.043" stroke="#2196F3" stroke-width="1.25" stroke-miterlimit="10"/>
<path d="M1044.69 -778.007L-1378.95 621.28" stroke="#2196F3" stroke-width="1.25" stroke-miterlimit="10"/>
<path d="M1003.54 -801.769L-1420.11 597.518" stroke="#2196F3" stroke-width="1.25" stroke-miterlimit="10"/>
</g>
<defs>
<clipPath id="clip0_4006_659">
<rect width="4525.09" height="2612.56" fill="white" transform="translate(-1462.51 -826.256)"/>
</clipPath>
</defs>
</svg>
